<svg width="21" height="20" viewBox="0 0 21 20" fill="none" xmlns="http://www.w3.org/2000/svg">
<path d="M9.57248 5.06668C9.8794 5.02187 10.1895 4.99959 10.5 5.00001C13.2825 5.00001 15.8987 6.90834 17.4212 10C17.1884 10.4705 16.9254 10.9269 16.6337 11.3667C16.5411 11.5032 16.4925 11.6625 16.4937 11.825C16.4957 12.0069 16.56 12.1831 16.677 12.3269C16.794 12.4707 16.9571 12.5741 17.1415 12.6213C17.326 12.6685 17.5215 12.6569 17.6984 12.5884C17.8753 12.5199 18.0238 12.3981 18.1212 12.2417C18.5289 11.6316 18.883 10.9906 19.18 10.325C19.2269 10.221 19.2511 10.109 19.2511 9.99584C19.2511 9.88266 19.2269 9.77066 19.18 9.66668C17.4125 5.75835 14.0875 3.33335 10.5 3.33335C10.0893 3.33137 9.6793 3.36484 9.27498 3.43335C9.16007 3.45195 9.05014 3.49193 8.95145 3.55099C8.85277 3.61006 8.76727 3.68706 8.69983 3.7776C8.63239 3.86813 8.58434 3.97043 8.55841 4.07866C8.53248 4.18688 8.52919 4.29891 8.54873 4.40835C8.56826 4.51778 8.61024 4.62248 8.67226 4.71646C8.73428 4.81045 8.81513 4.89188 8.91019 4.95611C9.00526 5.02033 9.11267 5.0661 9.22631 5.09079C9.33994 5.11548 9.45757 5.11862 9.57248 5.10001V5.06668ZM3.24623 1.90835C3.16465 1.83065 3.06779 1.76901 2.9612 1.72696C2.8546 1.68491 2.74036 1.66327 2.62498 1.66327C2.5096 1.66327 2.39536 1.68491 2.28876 1.72696C2.18217 1.76901 2.08531 1.83065 2.00373 1.90835C1.83896 2.06527 1.7464 2.27809 1.7464 2.50001C1.7464 2.72193 1.83896 2.93476 2.00373 3.09168L4.71623 5.66668C3.47861 6.80129 2.4936 8.16167 1.81998 9.66668C1.7718 9.77182 1.74693 9.8853 1.74693 10C1.74693 10.1147 1.7718 10.2282 1.81998 10.3333C3.58748 14.2417 6.91248 16.6667 10.5 16.6667C12.0724 16.6563 13.6078 16.2104 14.9187 15.3833L17.7537 18.0917C17.8351 18.1698 17.9318 18.2318 18.0385 18.2741C18.1451 18.3164 18.2595 18.3382 18.375 18.3382C18.4905 18.3382 18.6049 18.3164 18.7115 18.2741C18.8181 18.2318 18.9149 18.1698 18.9962 18.0917C19.0782 18.0142 19.1433 17.922 19.1878 17.8205C19.2322 17.7189 19.2551 17.61 19.2551 17.5C19.2551 17.39 19.2322 17.2811 19.1878 17.1795C19.1433 17.078 19.0782 16.9858 18.9962 16.9083L3.24623 1.90835ZM8.81123 9.56668L10.955 11.6083C10.8071 11.6487 10.6538 11.6684 10.5 11.6667C10.0358 11.6667 9.59073 11.4911 9.26254 11.1785C8.93435 10.866 8.74998 10.442 8.74998 10C8.74819 9.8535 8.76882 9.70752 8.81123 9.56668ZM10.5 15C7.71748 15 5.10123 13.0917 3.58748 10C4.15281 8.81147 4.95517 7.73883 5.94998 6.84168L7.49873 8.33334C7.13494 8.96568 6.99625 9.6933 7.10346 10.4071C7.21066 11.1208 7.55798 11.7822 8.09331 12.2921C8.62865 12.8019 9.32313 13.1327 10.0726 13.2348C10.822 13.3369 11.586 13.2048 12.25 12.8583L13.6412 14.1667C12.6884 14.7007 11.6055 14.988 10.5 15Z" fill="#727272"/>
</svg>
