<svg width="359" height="226" viewBox="0 0 359 226" fill="none" xmlns="http://www.w3.org/2000/svg">
<path d="M107.735 217.466C64.1494 219.935 51.4166 222.897 26.93 212.529C-0.494142 201.667 -16.0139 152.109 25.6005 130.563C69.478 107.844 73.3328 0.237826 163.428 25.2393C217.952 40.3698 214.494 103.911 262.976 96.011C311.459 88.1115 360.551 123.489 345.953 180.66C333.22 230.525 254.294 219.953 218.901 220.429C182.172 220.922 153.398 214.88 107.735 217.466Z" fill="#EBF3FA"/>
<path d="M179.114 135.043H172.798V217.425H179.114V135.043Z" fill="#C3DAFC"/>
<path d="M253.673 135.043H247.542V217.425H253.673V135.043Z" fill="#C3DAFC"/>
<path d="M253.676 135.043H179.116V136.974H253.676V135.043Z" fill="#699DEE"/>
<path d="M253.676 174.089H179.116V176.233H253.676V174.089Z" fill="#699DEE"/>
<path d="M253.676 206.838H179.116V209.391H253.676V206.838Z" fill="#699DEE"/>
<path d="M216.784 174.089H235.35V158.779H216.784V174.089Z" fill="#C3DAFC"/>
<path d="M226.067 174.089H244.632V158.779H226.067V174.089Z" fill="#D4E4F8"/>
<path d="M216.795 170.206H219.737L219.478 169.378L219.737 168.787H216.795V170.206Z" fill="#9DC3F3"/>
<path d="M226.068 163.517H229.009L228.75 162.689L229.009 162.098H226.068V163.517Z" fill="#E3F0FF"/>
<path d="M226.066 162.098H223.124L223.383 162.925L223.124 163.517H226.066V162.098Z" fill="#9DC3F3"/>
<path d="M244.635 170.371H241.693L241.953 171.199L241.693 171.79H244.635V170.371Z" fill="#E3F0FF"/>
<path d="M243.417 159.818H238.075V161.896H243.417V159.818Z" fill="white"/>
<path d="M192.955 174.089H211.52V158.779H192.955V174.089Z" fill="#C3DAFC"/>
<path d="M202.238 174.089H220.804V158.779H202.238V174.089Z" fill="#D4E4F8"/>
<path d="M192.966 170.207H195.908L195.648 169.379L195.908 168.788H192.966V170.207Z" fill="#233862"/>
<path d="M202.235 163.517H205.177L204.918 162.689L205.177 162.098H202.235V163.517Z" fill="#2A4E96"/>
<path d="M202.237 162.098H199.295L199.554 162.925L199.295 163.517H202.237V162.098Z" fill="#233862"/>
<path d="M220.804 170.371H217.862L218.121 171.199L217.862 171.79H220.804V170.371Z" fill="#2A4E96"/>
<path d="M210.877 169.66H203.708V172.449H210.877V169.66Z" fill="white"/>
<path d="M189.491 206.788H205.274V193.774H189.491V206.788Z" fill="#C3DAFC"/>
<path d="M197.384 206.788H213.168V193.774H197.384V206.788Z" fill="#D4E4F8"/>
<path d="M189.501 203.488H192.002L191.783 202.784L192.002 202.282H189.501V203.488Z" fill="#9DC3F3"/>
<path d="M197.383 197.802H199.884L199.663 197.099L199.884 196.596H197.383V197.802Z" fill="#E3F0FF"/>
<path d="M197.383 196.596H194.883L195.102 197.299L194.883 197.802H197.383V196.596Z" fill="#9DC3F3"/>
<path d="M213.169 203.628H210.668L210.889 204.331L210.668 204.834H213.169V203.628Z" fill="#E3F0FF"/>
<path d="M212.134 194.657H207.592V196.425H212.134V194.657Z" fill="white"/>
<path d="M215.08 206.789H230.902V193.742H215.08V206.789Z" fill="#C3DAFC"/>
<path d="M222.991 206.789H238.814V193.742H222.991V206.789Z" fill="#D4E4F8"/>
<path d="M215.089 203.481H217.597L217.376 202.775L217.597 202.271H215.089V203.481Z" fill="#9DC3F3"/>
<path d="M222.989 197.78H225.497L225.276 197.074L225.497 196.57H222.989V197.78Z" fill="#E3F0FF"/>
<path d="M222.991 196.57H220.484L220.705 197.276L220.484 197.78H222.991V196.57Z" fill="#9DC3F3"/>
<path d="M238.812 203.62H236.305L236.526 204.326L236.305 204.83H238.812V203.62Z" fill="#E3F0FF"/>
<path d="M237.777 194.628H233.224V196.399H237.777V194.628Z" fill="white"/>
<path d="M191.518 158.801H205.711V147.098H191.518V158.801Z" fill="#C3DAFC"/>
<path d="M198.616 158.801H212.809V147.098H198.616V158.801Z" fill="#D4E4F8"/>
<path d="M191.528 155.834H193.776L193.579 155.201L193.776 154.749H191.528V155.834Z" fill="#9DC3F3"/>
<path d="M198.617 150.719H200.866L200.668 150.086L200.866 149.634H198.617V150.719Z" fill="#E3F0FF"/>
<path d="M198.614 149.634H196.366L196.563 150.267L196.366 150.719H198.614V149.634Z" fill="#9DC3F3"/>
<path d="M212.811 155.959H210.562L210.76 156.592L210.562 157.044H212.811V155.959Z" fill="#E3F0FF"/>
<path d="M211.879 147.891H207.795V149.48H211.879V147.891Z" fill="white"/>
<path d="M231.604 149.92H220.846V158.791H231.604V149.92Z" fill="#ED823A"/>
<path d="M226.225 149.92H215.468V158.791H226.225V149.92Z" fill="#FF9E55"/>
<path d="M231.598 156.541H229.893L230.043 156.061L229.893 155.719H231.598V156.541Z" fill="#DD732C"/>
<path d="M226.225 152.666H224.521L224.67 152.186L224.521 151.843H226.225V152.666Z" fill="#FFB27D"/>
<path d="M226.224 151.843H227.929L227.779 152.323L227.929 152.666H226.224V151.843Z" fill="#DD732C"/>
<path d="M215.466 156.637H217.171L217.021 157.116L217.171 157.459H215.466V156.637Z" fill="#FFB27D"/>
<path d="M216.171 151.727H219.267V150.523H216.171V151.727Z" fill="white"/>
<path d="M175.111 108.812L184.486 108.783L184.512 117.14H175.137L175.111 108.812Z" fill="#D3671E"/>
<path d="M172.299 108.827L179.804 108.798L179.824 117.146L172.32 117.141L172.299 108.827Z" fill="#F1A34F"/>
<path opacity="0.4" d="M179.805 108.798L172.281 108.827L172.287 111.47L179.825 117.146L179.805 108.798Z" fill="#D86713"/>
<path d="M115.638 200.181L135.312 200.121L135.366 217.66H115.693L115.638 200.181Z" fill="#D3671E"/>
<path d="M109.736 200.21L125.487 200.15L125.53 217.669L109.78 217.659L109.736 200.21Z" fill="#F1A34F"/>
<path opacity="0.4" d="M125.487 200.15L109.696 200.211L109.709 205.758L125.53 217.669L125.487 200.15Z" fill="#D86713"/>
<path d="M187.798 203.625L173.331 203.669L173.371 216.5L187.838 216.456L187.798 203.625Z" fill="#D3671E"/>
<path d="M168.988 203.691L180.57 203.646L180.602 216.477L169.02 216.522L168.988 203.691Z" fill="#F1A34F"/>
<path opacity="0.4" d="M180.571 203.646L168.959 203.691L168.969 207.771L180.602 216.477L180.571 203.646Z" fill="#D86713"/>
<path d="M140.096 178.307L154.563 178.262L154.602 191.16L140.136 191.138L140.096 178.307Z" fill="#D3671E"/>
<path d="M135.757 178.329L147.339 178.284L147.371 191.16H135.789L135.757 178.329Z" fill="#F1A34F"/>
<path opacity="0.4" d="M147.337 178.285L135.786 178.329L135.735 182.409L147.369 191.115L147.337 178.285Z" fill="#D86713"/>
<path d="M168.094 170.274L182.561 170.228L182.6 191.16L168.133 191.204L168.094 170.274Z" fill="#D3671E"/>
<path d="M163.751 170.295L175.333 170.25L175.365 191.149H163.783L163.751 170.295Z" fill="#F1A34F"/>
<path opacity="0.4" d="M175.333 170.25L163.722 170.295L163.732 174.375L175.365 183.081L175.333 170.25Z" fill="#D86713"/>
<path d="M158.38 153.086L172.847 153.041L172.886 165.939H158.419L158.38 153.086Z" fill="#D3671E"/>
<path d="M154.037 153.109L165.62 153.063L165.651 165.946L154.069 165.939L154.037 153.109Z" fill="#F1A34F"/>
<path opacity="0.4" d="M165.62 153.063L154.008 153.109L154.018 157.188L165.651 165.946L165.62 153.063Z" fill="#D86713"/>
<path d="M169.03 196.833L146.515 196.903L146.576 216.87L169.091 216.801L169.03 196.833Z" fill="#D3671E"/>
<path d="M139.758 196.936L157.783 196.867L157.832 216.835L139.807 216.904L139.758 196.936Z" fill="#F1A34F"/>
<path opacity="0.4" d="M157.784 196.867L139.713 196.936L139.728 203.285L157.833 216.834L157.784 196.867Z" fill="#D86713"/>
<path d="M134.554 117.061V217.669H188.897V117.061H134.554ZM187.666 216.38H135.785V118.244H187.665V216.38H187.666Z" fill="#699FF0"/>
<path d="M196.282 117.061H188.896V217.705H196.282V117.061Z" fill="#466AA5"/>
<path d="M188.329 140.718H135.123V143.464H188.329V140.718Z" fill="#699FF0"/>
<path d="M188.329 165.939H135.123V168.685H188.329V165.939Z" fill="#699FF0"/>
<path d="M188.329 191.159H135.123V193.906H188.329V191.159Z" fill="#699FF0"/>
<path d="M139.476 218.14C139.413 218.14 139.348 218.132 139.284 218.117C138.833 218.011 138.555 217.56 138.661 217.11L157.26 138.267C157.366 137.816 157.817 137.537 158.267 137.644C158.718 137.75 158.996 138.2 158.89 138.651L140.29 217.495C140.2 217.88 139.855 218.14 139.476 218.14Z" fill="#2E3552"/>
<path d="M122.731 218.14C122.667 218.14 122.603 218.132 122.538 218.117C122.088 218.011 121.809 217.56 121.915 217.11L140.515 138.267C140.621 137.816 141.071 137.537 141.522 137.644C141.972 137.75 142.251 138.2 142.145 138.651L123.545 217.495C123.454 217.88 123.11 218.14 122.731 218.14Z" fill="#2E3552"/>
<path d="M147.692 181.798H130.976C130.514 181.798 130.139 181.423 130.139 180.961C130.139 180.499 130.514 180.124 130.976 180.124H147.692C148.154 180.124 148.529 180.499 148.529 180.961C148.529 181.423 148.154 181.798 147.692 181.798Z" fill="#2E3552"/>
<path d="M144.846 194.692H128.338C127.876 194.692 127.501 194.317 127.501 193.855C127.501 193.393 127.876 193.018 128.338 193.018H144.846C145.308 193.018 145.684 193.393 145.684 193.855C145.684 194.317 145.308 194.692 144.846 194.692Z" fill="#2E3552"/>
<path d="M151.041 168.905H133.418C132.955 168.905 132.58 168.53 132.58 168.067C132.58 167.605 132.955 167.23 133.418 167.23H151.041C151.504 167.23 151.879 167.605 151.879 168.067C151.879 168.53 151.504 168.905 151.041 168.905Z" fill="#2E3552"/>
<path d="M153.218 155.843H134.227C133.765 155.843 133.39 155.468 133.39 155.006C133.39 154.544 133.765 154.168 134.227 154.168H153.218C153.681 154.168 154.056 154.544 154.056 155.006C154.056 155.468 153.681 155.843 153.218 155.843Z" fill="#2E3552"/>
<path d="M141.749 207.67H125.341C124.879 207.67 124.504 207.294 124.504 206.832C124.504 206.37 124.879 205.995 125.341 205.995H141.75C142.212 205.995 142.587 206.37 142.587 206.832C142.587 207.294 142.211 207.67 141.749 207.67Z" fill="#2E3552"/>
<path d="M156.568 142.95H137.576C137.114 142.95 136.739 142.575 136.739 142.112C136.739 141.65 137.114 141.275 137.576 141.275H156.568C157.03 141.275 157.405 141.65 157.405 142.112C157.405 142.575 157.03 142.95 156.568 142.95Z" fill="#2E3552"/>
<path d="M144.486 131.695C144.486 131.695 144.546 129.881 144.853 129.364C145.159 128.848 145.84 128.212 146.206 128.437C146.572 128.663 146.62 130.434 146.494 130.747C146.367 131.059 145.474 132.214 145.474 132.214L144.486 131.695Z" fill="#FFB27D"/>
<path d="M145.155 131.499C144.631 131.205 144.407 131.443 144.407 131.443C144.407 131.443 140.798 136.483 140.429 136.881C140.06 137.28 133.995 139.313 133.995 139.313C133.995 139.313 131.536 140.029 131.322 141.468C131.137 142.718 131.788 143.548 132.53 144.078C133.416 144.71 134.601 144.725 135.512 144.13C137.556 142.796 141.613 140.106 142.293 139.342C143.806 137.641 145.785 132.086 145.785 132.086C145.785 132.086 145.567 131.731 145.155 131.499Z" fill="#AA413E"/>
<path d="M159.267 123.141L144.799 123.185L144.839 136.016L159.306 135.972L159.267 123.141Z" fill="#D3671E"/>
<path d="M140.456 123.207L152.038 123.163L152.07 135.993L140.488 136.037L140.456 123.207Z" fill="#F1A34F"/>
<path opacity="0.4" d="M152.039 123.163L140.427 123.207L140.437 127.286L152.071 135.993L152.039 123.163Z" fill="#D86713"/>
<path d="M153.204 134.684C153.204 134.684 153.196 132.869 153.483 132.34C153.77 131.812 154.427 131.152 154.801 131.363C155.175 131.574 155.29 133.344 155.175 133.66C155.061 133.977 154.211 135.165 154.211 135.165L153.204 134.684Z" fill="#FFB27D"/>
<path d="M130.698 193.106C130.294 192.759 130.536 190.819 130.536 190.819C130.536 190.819 132.62 189.152 132.906 190.428C133.193 191.705 134.886 192.278 135.85 192.434C136.493 192.539 136.707 192.886 136.778 193.106H130.698Z" fill="#2C3A64"/>
<path d="M130.469 190.908C132.398 191.208 133.103 190.748 133.103 190.748C133.078 188.848 133.886 185.287 134.69 180.368C135.749 173.882 136.963 165.567 137.871 160.887C138.393 158.196 138.741 156.468 138.741 156.468L137.164 156.437L129.301 156.281C129.301 156.281 129.889 164.984 129.728 169.283C129.69 170.309 129.608 171.084 129.466 171.43C128.125 174.688 130.469 190.908 130.469 190.908Z" fill="#35488B"/>
<path d="M129.724 169.284C130.792 171.283 133.667 177.304 134.662 180.518C135.721 174.031 136.96 165.568 137.867 160.888C137.822 159.12 137.611 157.574 137.16 156.437L129.296 156.282C129.296 156.282 129.885 164.985 129.724 169.284Z" fill="#2C3A64"/>
<path d="M137.324 193.106C136.919 192.759 137.161 190.819 137.161 190.819C137.161 190.819 139.245 189.152 139.531 190.428C139.818 191.705 141.511 192.278 142.475 192.434C143.118 192.539 143.332 192.886 143.403 193.106H137.324Z" fill="#2C3A64"/>
<path d="M142.156 156.279C142.156 156.279 139.066 184.864 139.678 190.629C139.678 190.629 139.018 191.146 137.069 191.027C137.069 191.027 133.2 176.287 134.288 171.895C134.75 170.027 132.737 156.957 132.737 156.957L142.156 156.279Z" fill="#35488B"/>
<path d="M134.55 135.838C134.55 135.838 138.478 137.8 140.426 136.905C140.426 136.905 139.608 135.845 138.691 135.406C138.71 135.057 138.722 134.741 138.727 134.461C138.744 133.532 138.697 133.009 138.697 133.009L137.004 131.776L135.854 130.94C135.92 131.457 135.93 131.935 135.901 132.374C135.749 134.636 134.55 135.838 134.55 135.838Z" fill="#FFB27D"/>
<path d="M135.904 132.374C135.904 132.374 136.82 134.2 138.73 134.461C138.747 133.531 138.7 133.008 138.7 133.008L137.007 131.776C136.266 132.054 135.904 132.374 135.904 132.374Z" fill="#ED975D"/>
<path d="M139.138 132.89C139.138 132.89 135.622 134.142 134.876 131.94C134.13 129.738 133.174 128.417 135.387 127.525C137.6 126.632 138.324 127.324 138.751 127.998C139.179 128.673 140.033 132.507 139.138 132.89Z" fill="#FFB27D"/>
<path d="M129.048 156.28C129.599 157.427 141.785 157.376 142.387 156.567C142.632 156.239 142.913 152.949 143.073 149.124C143.162 147.006 143.214 144.723 143.204 142.688C143.186 139.369 143 136.712 142.532 136.509C139.92 135.376 138.306 134.655 134.894 134.759C133.842 134.791 132.89 135.398 132.432 136.346C131.612 138.042 130.449 141.048 130.36 144.598C130.222 150.068 128.355 154.834 129.048 156.28Z" fill="#C65447"/>
<path d="M139.261 140.436C139.261 140.436 139.657 146.156 143.072 149.125C143.161 147.007 143.212 144.723 143.202 142.689C142.183 141.324 140.836 140.342 139.261 140.436Z" fill="#AA413E"/>
<path d="M137.583 134.881C137.583 134.881 141.331 134.904 142.507 135.996C143.35 136.779 148.976 140.614 149.32 140.557C149.664 140.499 152.94 133.973 152.94 133.973C152.94 133.973 154.659 134.118 154.947 134.863C154.947 134.863 153.384 143.189 149.886 145.079C149.886 145.079 140.984 143.765 138.36 140.841C137.008 139.334 137.583 134.881 137.583 134.881Z" fill="#C65447"/>
<path d="M138.982 126.28C138.982 126.28 138.775 128.381 138.143 128.954C137.513 129.528 137.679 130.317 137.61 130.431C137.541 130.546 136.888 130.209 136.774 130.402C136.509 130.847 136.923 131.171 137.183 131.278C137.443 131.385 136.517 133.188 135.837 133.255C134.66 133.369 132.843 130.116 132.689 129.162C132.488 127.915 133.194 125.97 135.219 126.065C138.402 126.216 139.047 125.526 138.982 126.28Z" fill="#2B478B"/>
<path d="M221.911 197.604L199.396 197.674L199.457 217.642L221.972 217.572L221.911 197.604Z" fill="#D3671E"/>
<path d="M192.637 197.708L210.662 197.638L210.711 217.606L192.686 217.676L192.637 197.708Z" fill="#F1A34F"/>
<path opacity="0.4" d="M210.663 197.638L192.592 197.708L192.607 204.057L210.712 217.606L210.663 197.638Z" fill="#D86713"/>
<path d="M235.655 204.766L221.188 204.81L221.227 217.64L235.695 217.596L235.655 204.766Z" fill="#D3671E"/>
<path d="M216.845 204.832L228.428 204.787L228.459 217.617L216.876 217.663L216.845 204.832Z" fill="#F1A34F"/>
<path opacity="0.4" d="M228.428 204.787L216.815 204.832L216.825 208.912L228.459 217.618L228.428 204.787Z" fill="#D86713"/>
<path d="M320.748 137.914H234.424V218.447H320.748V137.914Z" fill="#C1D8F4"/>
<path d="M318.044 140.401H237.126V148.289H318.044V140.401Z" fill="#E3F0FF"/>
<path d="M318.044 156.046H237.127V163.934H318.044V156.046Z" fill="#E3F0FF"/>
<path d="M318.044 148.224H237.127V156.112H318.044V148.224Z" fill="#D4E4F8"/>
<path d="M318.044 171.692H237.127V179.58H318.044V171.692Z" fill="#E3F0FF"/>
<path d="M318.044 163.869H237.127V171.757H318.044V163.869Z" fill="#D4E4F8"/>
<path d="M318.044 187.167H237.127V195.055H318.044V187.167Z" fill="#E3F0FF"/>
<path d="M318.044 179.346H237.127V187.233H318.044V179.346Z" fill="#D4E4F8"/>
<path d="M318.044 194.92H237.127V202.808H318.044V194.92Z" fill="#D4E4F8"/>
<path d="M318.044 202.808H237.127V210.696H318.044V202.808Z" fill="#E3F0FF"/>
<path d="M318.044 210.559H237.127V218.447H318.044V210.559Z" fill="#D4E4F8"/>
<path d="M320.749 117.235H234.424V132.182H320.749V117.235Z" fill="#D5E5FB"/>
<path d="M75.4065 136.235H93.3642V121.427H75.4065V136.235Z" fill="#C3DAFC"/>
<path d="M84.3861 136.235H102.344V121.427H84.3861V136.235Z" fill="#D4E4F8"/>
<path d="M75.4181 132.48H78.264L78.0137 131.679L78.264 131.107H75.4181V132.48Z" fill="#9DC3F3"/>
<path d="M84.3859 126.011H87.2307L86.9804 125.211L87.2307 124.638H84.3859V126.011Z" fill="#E3F0FF"/>
<path d="M84.3871 124.638H81.5412L81.7926 125.439L81.5412 126.011H84.3871V124.638Z" fill="#9DC3F3"/>
<path d="M102.343 132.639H99.4975L99.7489 133.439L99.4975 134.012H102.343V132.639Z" fill="#E3F0FF"/>
<path d="M101.169 122.433H96.001V124.443H101.169V122.433Z" fill="white"/>
<path d="M45.5916 136.614H63.5493V121.807H45.5916V136.614Z" fill="#C3DAFC"/>
<path d="M54.5713 136.614H72.529V121.807H54.5713V136.614Z" fill="#D4E4F8"/>
<path d="M45.604 132.86H48.4489L48.1986 132.059L48.4489 131.487H45.604V132.86Z" fill="#9DC3F3"/>
<path d="M54.5707 126.39H57.4166L57.1652 125.59L57.4166 125.017H54.5707V126.39Z" fill="#E3F0FF"/>
<path d="M54.5713 125.017H51.7265L51.9768 125.818L51.7265 126.39H54.5713V125.017Z" fill="#9DC3F3"/>
<path d="M72.5282 133.018H69.6834L69.9337 133.819L69.6834 134.391H72.5282V133.018Z" fill="#E3F0FF"/>
<path d="M71.3522 122.813H66.1852V124.823H71.3522V122.813Z" fill="white"/>
<path d="M38.9881 136.236H32.0811V218.618H38.9881V136.236Z" fill="#C3DAFC"/>
<path d="M113.546 136.236H107.804V218.618H113.546V136.236Z" fill="#C3DAFC"/>
<path d="M113.547 136.236H38.9868V138.38H113.547V136.236Z" fill="#699DEE"/>
<path d="M113.547 175.284H38.9868V177.427H113.547V175.284Z" fill="#699DEE"/>
<path d="M113.547 208.031H38.9868V210.175H113.547V208.031Z" fill="#699DEE"/>
<path d="M76.6547 175.282H95.22V159.973H76.6547V175.282Z" fill="#A9C8ED"/>
<path d="M85.9382 175.282H104.503V159.973H85.9382V175.282Z" fill="#D4E4F8"/>
<path d="M76.6665 171.4H79.6095L79.3503 170.572L79.6095 169.981H76.6665V171.4Z" fill="#9DC3F3"/>
<path d="M85.9381 164.711H88.88L88.6208 163.883L88.88 163.292H85.9381V164.711Z" fill="#E3F0FF"/>
<path d="M85.9367 163.292H82.9948L83.2539 164.119L82.9948 164.711H85.9367V163.292Z" fill="#9DC3F3"/>
<path d="M104.506 171.564H101.564L101.823 172.392L101.564 172.984H104.506V171.564Z" fill="#E3F0FF"/>
<path d="M103.288 161.012H97.9455V163.09H103.288V161.012Z" fill="white"/>
<path d="M52.8272 175.282H71.3924V159.973H52.8272L52.8272 175.282Z" fill="#C3DAFC"/>
<path d="M62.111 175.282H80.6762V159.973H62.111L62.111 175.282Z" fill="#D4E4F8"/>
<path d="M52.839 171.4H55.7808L55.5217 170.571L55.7808 169.98H52.839V171.4Z" fill="#9DC3F3"/>
<path d="M62.1107 164.711H65.0526L64.7934 163.883L65.0526 163.292H62.1107V164.711Z" fill="#E3F0FF"/>
<path d="M62.1115 163.292H59.1685L59.4287 164.119L59.1685 164.711H62.1115V163.292Z" fill="#9DC3F3"/>
<path d="M80.6772 171.564H77.7354L77.9945 172.392L77.7354 172.984H80.6772V171.564Z" fill="#E3F0FF"/>
<path d="M80.6772 163.09H77.7354L77.9945 163.917L77.7354 164.51H80.6772V163.09Z" fill="#E3F0FF"/>
<path d="M72.695 170.254H63.9874V173.642H72.695V170.254Z" fill="white"/>
<path d="M76.6508 207.981H92.6976V194.749H76.6508V207.981Z" fill="#C3DAFC"/>
<path d="M84.6759 207.981H100.723V194.749H84.6759V207.981Z" fill="#D4E4F8"/>
<path d="M76.6618 204.625H79.2045L78.9807 203.91L79.2045 203.399H76.6618V204.625Z" fill="#9DC3F3"/>
<path d="M84.6739 198.844H87.2166L86.9928 198.128L87.2166 197.618H84.6739V198.844Z" fill="#E3F0FF"/>
<path d="M84.6746 197.618H82.1319L82.3557 198.333L82.1319 198.844H84.6746V197.618Z" fill="#9DC3F3"/>
<path d="M100.721 204.768H98.1784L98.4022 205.484L98.1784 205.995H100.721V204.768Z" fill="#E3F0FF"/>
<path d="M99.6709 195.646H95.0531V197.443H99.6709V195.646Z" fill="white"/>
<path d="M46.177 207.982H64.7422V192.673H46.177L46.177 207.982Z" fill="#C3DAFC"/>
<path d="M55.4597 207.982H74.0249V192.673H55.4597L55.4597 207.982Z" fill="#D4E4F8"/>
<path d="M46.1887 204.1H49.1306L48.8715 203.272L49.1306 202.68H46.1887V204.1Z" fill="#2A4E96"/>
<path d="M55.4594 197.412H58.4012L58.1421 196.584L58.4012 195.992H55.4594V197.412Z" fill="#618DC1"/>
<path d="M55.4579 195.992H52.5161L52.7752 196.82L52.5161 197.412H55.4579V195.992Z" fill="#2A4E96"/>
<path d="M74.027 204.265H71.0852L71.3443 205.092L71.0852 205.684H74.027V204.265Z" fill="#618DC1"/>
<path d="M72.81 193.711H67.4677V195.79H72.81V193.711Z" fill="white"/>
<path d="M51.4031 159.903H65.5963V148.2H51.4031L51.4031 159.903Z" fill="#C3DAFC"/>
<path d="M58.4996 159.903H72.6928V148.2H58.4996L58.4996 159.903Z" fill="#D4E4F8"/>
<path d="M51.4119 156.936H53.6613L53.4628 156.303L53.6613 155.851H51.4119V156.936Z" fill="#9DC3F3"/>
<path d="M58.5015 151.822H60.7509L60.5524 151.189L60.7509 150.737H58.5015V151.822Z" fill="#E3F0FF"/>
<path d="M58.4978 150.737H56.2484L56.4469 151.37L56.2484 151.822H58.4978V150.737Z" fill="#9DC3F3"/>
<path d="M72.6936 157.061H70.4453L70.6426 157.694L70.4453 158.146H72.6936V157.061Z" fill="#E3F0FF"/>
<path d="M71.7639 148.994H67.6797V150.583H71.7639V148.994Z" fill="white"/>
<path d="M76.7588 159.903H90.9521V148.199H76.7588V159.903Z" fill="#C3DAFC"/>
<path d="M83.8564 159.903H98.0497V148.199H83.8564L83.8564 159.903Z" fill="#D4E4F8"/>
<path d="M76.7682 156.935H79.0165L78.8191 156.302L79.0165 155.85H76.7682V156.935Z" fill="#9DC3F3"/>
<path d="M83.8574 151.821H86.1068L85.9083 151.188L86.1068 150.736H83.8574V151.821Z" fill="#E3F0FF"/>
<path d="M83.8548 150.736H81.6065L81.8039 151.369L81.6065 151.821H83.8548V150.736Z" fill="#9DC3F3"/>
<path d="M98.0518 157.061H95.8024L96.0009 157.694L95.8024 158.146H98.0518V157.061Z" fill="#E3F0FF"/>
<path d="M97.1198 148.993H93.0356V150.582H97.1198V148.993Z" fill="white"/>
<path d="M67.0153 183.796H56.2579V192.666H67.0153V183.796Z" fill="#ED823A"/>
<path d="M61.6353 183.796H50.8779V192.666H61.6353V183.796Z" fill="#FF9E55"/>
<path d="M67.0088 190.416H65.3041L65.4552 189.936L65.3041 189.594H67.0088V190.416Z" fill="#DD732C"/>
<path d="M61.6366 186.54H59.9319L60.0819 186.06L59.9319 185.717H61.6366V186.54Z" fill="#FFB27D"/>
<path d="M61.6353 185.717H63.3399L63.19 186.198L63.3399 186.54H61.6353V185.717Z" fill="#DD732C"/>
<path d="M50.8772 190.512H52.5819L52.432 190.992L52.5819 191.335H50.8772V190.512Z" fill="#FFB27D"/>
<path d="M51.5827 185.602H54.679V184.397H51.5827V185.602Z" fill="white"/>
<path d="M54.657 216.233H56.4762L56.4762 184.191H54.657L54.657 216.233Z" fill="#FF9E55"/>
<path d="M51.2208 185.679H55.7467C56.4846 185.679 57.0834 185.08 57.0834 184.342C57.0834 183.605 56.4846 183.006 55.7467 183.006H51.2208C50.4829 183.006 49.8841 183.605 49.8841 184.342C49.8841 185.08 50.4829 185.679 51.2208 185.679Z" fill="#2A4E96"/>
<path d="M56.4779 200.212C56.6987 200.232 66.2933 205.904 66.2933 205.904V214.181H56.3131L56.4779 200.212Z" fill="#FF9E55"/>
<path d="M112.408 216.623C112.408 215.126 111.194 213.912 109.697 213.912C108.2 213.912 106.985 215.126 106.985 216.623C106.985 218.12 108.2 219.335 109.697 219.335C111.194 219.335 112.408 218.12 112.408 216.623Z" fill="#2A4E96"/>
<path d="M111.397 216.623C111.397 215.686 110.637 214.925 109.699 214.925C108.762 214.925 108.001 215.686 108.001 216.623C108.001 217.561 108.762 218.321 109.699 218.321C110.637 218.321 111.397 217.561 111.397 216.623Z" fill="#183E7A"/>
<path d="M54.6581 216.233H113.549V213.795H54.6581V216.233Z" fill="#FF9E55"/>
<path d="M60.793 215.015C60.793 212.629 58.8589 210.695 56.4728 210.695C54.0866 210.695 52.1526 212.629 52.1526 215.015C52.1526 217.401 54.0866 219.335 56.4728 219.335C58.8589 219.335 60.793 217.401 60.793 215.015Z" fill="#2A4E96"/>
<path d="M59.179 215.015C59.179 213.521 57.9678 212.308 56.4723 212.308C54.9783 212.308 53.7655 213.519 53.7655 215.015C53.7655 216.51 54.9768 217.722 56.4723 217.722C57.9678 217.72 59.179 216.509 59.179 215.015Z" fill="#183E7A"/>
<path d="M52.5995 181.462C52.5995 181.462 54.6802 182.289 54.7906 182.674C54.901 183.06 54.901 184.55 54.349 184.55C53.7971 184.55 53.2179 183.281 52.9699 183.254C52.722 183.226 52.0324 183.06 51.9493 182.758C51.8691 182.455 52.5995 181.462 52.5995 181.462Z" fill="#FFB27D"/>
<path d="M52.6613 182.065C52.9592 181.439 52.6673 181.202 52.6673 181.202C52.6673 181.202 46.59 177.446 46.1016 177.051C45.6147 176.658 42.8021 169.841 42.8021 169.841C42.8021 169.841 41.7875 167.068 40.115 166.936C38.6634 166.822 37.7576 167.634 37.2072 168.53C36.5494 169.598 36.625 170.962 37.3811 171.963C39.0762 174.21 42.4861 178.665 43.4176 179.387C45.4907 180.995 52.0353 182.837 52.0353 182.837C52.0353 182.837 52.4284 182.557 52.6613 182.065Z" fill="#1F437C"/>
<path d="M40.4714 218.874H34.6451C34.5892 218.863 34.5468 218.851 34.5211 218.837C34.1325 218.642 34.2535 217.153 34.3003 216.693C34.3094 216.608 34.3155 216.559 34.3155 216.559C34.3155 216.559 36.3644 214.921 36.6457 216.174C36.6547 216.214 36.6653 216.252 36.6759 216.289C37.0313 217.463 38.622 217.997 39.5399 218.145C40.2415 218.26 40.4245 218.668 40.4714 218.874Z" fill="#2C3A64"/>
<path d="M36.7761 164.738C36.7761 164.738 38.1613 166.998 40.4401 166.486C40.4401 166.486 41.0721 165.436 41.2037 164.612C41.2203 164.511 41.2355 164.413 41.2521 164.319C41.4048 163.392 41.5152 162.875 41.5152 162.875C41.5152 162.875 41.5152 162.875 41.5137 162.875C41.4215 162.819 38.4289 161.025 38.4153 161.134C38.0887 163.656 36.7761 164.738 36.7761 164.738Z" fill="#FFB27D"/>
<path d="M38.645 161.783C38.8658 162.4 39.7534 163.676 41.2534 164.32C41.4062 163.393 41.5165 162.876 41.5165 162.876C41.5165 162.876 41.5165 162.876 41.515 162.876C41.4288 162.837 38.5784 161.6 38.645 161.783Z" fill="#ED975D"/>
<path d="M42.1984 162.881C42.1984 162.881 38.4815 163.18 38.3303 160.863C38.1791 158.545 37.5969 157.024 39.9634 156.735C42.3299 156.446 42.8486 157.299 43.0875 158.061C43.3279 158.82 43.1616 162.741 42.1984 162.881Z" fill="#FFB27D"/>
<path d="M38.3596 161.492C38.3066 161.516 37.4976 161.636 36.4769 158.501C36.3166 158.01 36.3106 156.996 36.9775 156.203C37.6443 155.41 39.6464 155.009 41.2689 154.949C42.8914 154.889 43.1349 155.834 43.3708 156.782C43.6188 157.777 44.6274 158.717 44.6274 158.717C43.1531 159.271 41.6802 157.937 41.0859 158.029C40.4917 158.121 40.156 158.985 40.0698 159.266C39.9836 159.546 39.8823 159.774 39.2079 159.41C38.5335 159.045 38.7315 160.372 38.8102 160.632C38.8102 160.632 38.8087 161.292 38.3596 161.492Z" fill="#2A4E96"/>
<path d="M25.1709 218.873H22.9737C22.5125 218.873 22.0014 218.412 21.8729 217.567C21.7444 216.722 20.7977 216.26 20.5921 215.569C20.3864 214.878 21.4374 213.904 21.4374 213.904L21.6128 213.679L21.7958 213.443L23.5362 213.853C23.5362 213.853 23.5786 214.267 23.6058 214.795C23.6239 215.176 23.6345 215.618 23.6134 216.003C23.5619 216.926 23.8719 217.918 24.69 218.098C25.5111 218.278 25.1709 218.873 25.1709 218.873Z" fill="#2C3A64"/>
<path d="M39.2981 185.277C39.2981 185.277 38.9866 189.158 38.6207 193.825C38.1232 200.164 37.5259 207.948 37.4669 209.424C37.3641 211.986 36.9543 216.082 36.9543 216.082C36.9543 216.082 35.982 217.056 34.0359 216.645C34.0359 216.645 32.3015 210.797 31.8055 204.609C31.7979 204.508 31.7903 204.405 31.7828 204.304C31.3216 198.004 30.6048 184.74 30.6048 184.74L39.2981 185.277Z" fill="#FF9E55"/>
<path d="M37.727 186.044C37.727 186.044 38.3394 187.441 37.2189 191.985C36.3963 195.319 31.8055 204.609 31.8055 204.609C31.7979 204.507 31.7903 204.404 31.7828 204.303C31.3216 198.004 30.6048 184.739 30.6048 184.739L37.727 186.044Z" fill="#ED823A"/>
<path d="M38.1374 185.018C38.1374 185.018 32.2687 199.795 28.5806 206.401C24.894 213.008 23.7418 214.851 23.7418 214.851C23.7418 214.851 21.6293 214.006 21.4372 213.43C21.4372 213.43 22.8466 200.676 25.3159 197.567C26.7116 195.81 28.3508 190.539 28.4264 188.694C28.5035 186.851 28.9254 183.202 28.9254 183.202L38.1374 185.018Z" fill="#FF9E55"/>
<path d="M38.4363 185.687C37.644 185.463 29.5706 182.3 29.7279 181.842C30.2753 180.249 30.8408 177.561 31.5152 174.293C31.6423 173.684 31.7844 173.086 31.9386 172.5C32.3424 170.972 32.8384 169.539 33.3994 168.284C34.4443 165.952 36.1409 164.37 37.4973 163.83C37.6742 163.764 38.0447 164.323 38.7705 164.962C39.4419 165.55 40.139 165.539 40.9102 165.588L41.5332 166.691C42.0367 167.649 42.4677 168.99 42.5236 170.082C42.5252 170.08 38.5074 185.707 38.4363 185.687Z" fill="#2A4E96"/>
<path d="M42.5258 170.08L40.1094 169.82L34.1289 177.075C33.27 178.117 31.8531 178.513 30.5783 178.068L28.9271 183.204L39.0751 186.479L42.5258 170.08Z" fill="#FF9E55"/>
<path d="M38.6357 166.599C38.2834 165.934 37.0797 164.024 37.0797 164.024L37.5001 163.829C37.739 163.859 39.0107 165.759 39.4069 166.469C39.8832 167.327 41.1005 170.006 41.1005 170.006L40.11 169.819C40.11 169.82 39.05 167.383 38.6357 166.599Z" fill="#ED823A"/>
<path d="M50.0132 182.227C50.0132 182.227 52.0939 183.054 52.2043 183.44C52.3147 183.825 52.3147 185.315 51.7627 185.315C51.2108 185.315 50.6316 184.046 50.3836 184.019C50.1357 183.992 49.4461 183.825 49.363 183.523C49.2828 183.22 50.0132 182.227 50.0132 182.227Z" fill="#FFB27D"/>
<path d="M50.0075 183.092C50.3054 182.466 50.0136 182.228 50.0136 182.228C50.0136 182.228 43.9363 178.472 43.4494 178.077C42.9624 177.684 40.1499 170.867 40.1499 170.867C40.1499 170.867 39.1352 168.096 37.4628 167.963C36.0111 167.848 35.1053 168.66 34.5549 169.556C33.8971 170.624 33.9727 171.988 34.7288 172.989C36.4239 175.236 39.8338 179.691 40.7653 180.414C42.8384 182.021 49.383 183.863 49.383 183.863C49.383 183.863 49.7747 183.583 50.0075 183.092Z" fill="#2A4E96"/>
<path d="M107.999 193.755H83.3722V214.061H107.999V193.755Z" fill="#699DEE"/>
<path d="M95.6863 193.755H71.0596V214.061H95.6863V193.755Z" fill="#80B4FF"/>
<path d="M107.983 208.912H104.08L104.425 207.814L104.08 207.029H107.983V208.912Z" fill="#9DC3F3"/>
<path d="M95.6856 200.04H91.7828L92.126 198.942L91.7828 198.158H95.6856V200.04Z" fill="#E3F0FF"/>
<path d="M95.6878 198.158H99.5891L99.2459 199.255L99.5891 200.04H95.6878V198.158Z" fill="#9DC3F3"/>
<path d="M71.0596 209.129H74.9609L74.6176 210.227L74.9609 211.012H71.0596V209.129Z" fill="#E3F0FF"/>
<path d="M72.6714 197.889H79.7589V195.133H72.6714V197.889Z" fill="white"/>
<path d="M83.3707 193.964H98.1232V181.799H83.3707V193.964Z" fill="#ED823A"/>
<path d="M90.7476 193.964H105.5V181.799H90.7476V193.964Z" fill="#FF9E55"/>
<path d="M83.3796 190.88H85.7174L85.5118 190.222L85.7174 189.752H83.3796V190.88Z" fill="#DD732C"/>
<path d="M90.7473 185.564H93.085L92.8794 184.907L93.085 184.436H90.7473V185.564Z" fill="#FFB27D"/>
<path d="M90.7483 184.436H88.4105L88.6161 185.094L88.4105 185.564H90.7483V184.436Z" fill="#DD732C"/>
<path d="M105.502 191.01H103.164L103.37 191.669L103.164 192.138H105.502V191.01Z" fill="#FFB27D"/>
<path d="M104.534 182.625H100.288V184.276H104.534V182.625Z" fill="white"/>
<path d="M349.081 217.096H335.272C333.597 217.096 332.227 215.725 332.227 214.051V201.583C332.227 199.908 333.597 198.538 335.272 198.538H349.081C350.756 198.538 352.126 199.908 352.126 201.583V214.051C352.128 215.725 350.756 217.096 349.081 217.096Z" fill="#163560"/>
<path d="M312.011 170.967C312.011 170.967 310.741 171.029 310.482 170.925C310.223 170.819 309.514 170.402 309.617 169.931C309.682 169.64 310.208 170.104 310.423 170.018C310.638 169.931 309.984 169.869 309.953 169.759C309.921 169.649 310.491 169.591 310.697 169.555C310.902 169.519 311.495 169.995 311.964 170.124C312.433 170.252 312.011 170.967 312.011 170.967Z" fill="#FFB27D"/>
<path d="M328.614 169.585C328.614 169.585 326.851 171.581 324.71 171.867C322.569 172.153 319.407 172.788 318.432 172.797C317.456 172.806 311.92 171.084 311.92 171.084C311.92 171.084 311.818 170.908 311.937 170.513C312.052 170.135 312.33 169.983 312.33 169.983C312.33 169.983 316.124 170.076 317.896 170.323C318.633 170.426 323.646 167.436 324.43 165.634C324.737 164.928 328.614 169.585 328.614 169.585Z" fill="#ED7D2B"/>
<path d="M276.857 187.158H241.792V216.072H276.857V187.158Z" fill="#ED823A"/>
<path d="M259.324 187.158H224.26V216.072H259.324V187.158Z" fill="#FF9E55"/>
<path d="M276.836 208.74H271.279L271.769 207.176L271.279 206.059H276.836V208.74Z" fill="#DD732C"/>
<path d="M259.327 196.106H253.77L254.26 194.544L253.77 193.427H259.327V196.106Z" fill="#FFB27D"/>
<path d="M259.325 193.427H264.881L264.391 194.99L264.881 196.106H259.325V193.427Z" fill="#DD732C"/>
<path d="M224.26 209.049H229.816L229.326 210.613L229.816 211.73H224.26V209.049Z" fill="#FFB27D"/>
<path d="M226.556 193.044H236.647V189.118H226.556V193.044Z" fill="white"/>
<path d="M273.08 158.272H238.016V187.186H273.08V158.272Z" fill="#ED823A"/>
<path d="M255.55 158.272H220.485V187.186H255.55V158.272Z" fill="#FF9E55"/>
<path d="M273.061 179.854H267.503L267.993 178.29L267.503 177.173H273.061V179.854Z" fill="#DD732C"/>
<path d="M255.55 167.22H249.994L250.482 165.656L249.994 164.541H255.55V167.22Z" fill="#FFB27D"/>
<path d="M255.549 164.541H261.105L260.616 166.104L261.105 167.22H255.549V164.541Z" fill="#DD732C"/>
<path d="M220.485 180.163H226.04L225.552 181.727L226.04 182.844H220.485V180.163Z" fill="#FFB27D"/>
<path d="M222.781 164.158H232.871V160.232H222.781V164.158Z" fill="white"/>
<path d="M292.257 144.565H282.957V217.977H292.257V144.565Z" fill="#163560"/>
<path d="M342.132 200.51H318.568C316.831 200.51 315.409 199.088 315.409 197.351V191.437C315.409 189.699 316.831 188.278 318.568 188.278H342.132C343.869 188.278 345.291 189.699 345.291 191.437V197.351C345.291 199.09 343.869 200.51 342.132 200.51Z" fill="#699DEE"/>
<path d="M295.342 209.997L333.197 211.532V195.907L294.714 196.535L295.342 209.997Z" fill="#234884"/>
<path d="M305.582 221.773C310.159 217.196 310.159 209.776 305.582 205.199C301.006 200.623 293.586 200.623 289.009 205.199C284.433 209.776 284.433 217.196 289.009 221.773C293.586 226.349 301.006 226.349 305.582 221.773Z" fill="#2A4E96"/>
<path d="M303.973 214.567C304.57 210.885 302.07 207.416 298.389 206.819C294.707 206.221 291.238 208.722 290.641 212.403C290.043 216.085 292.543 219.554 296.225 220.151C299.906 220.749 303.375 218.249 303.973 214.567Z" fill="#163560"/>
<path d="M358.751 218.12C359.923 213.156 356.849 208.181 351.885 207.009C346.92 205.837 341.946 208.911 340.773 213.875C339.601 218.84 342.675 223.814 347.64 224.986C352.604 226.159 357.579 223.085 358.751 218.12Z" fill="#2A4E96"/>
<path d="M344.435 215.969C344.435 213.029 346.818 210.646 349.758 210.646C352.697 210.646 355.08 213.029 355.08 215.969C355.08 218.909 352.697 221.292 349.758 221.292C346.818 221.292 344.435 218.909 344.435 215.969Z" fill="#163560"/>
<path d="M343.059 185.862V192.837H333.293L309.947 208.184V219.589H333.045C335.46 219.589 337.418 217.63 337.418 215.215V212.637C337.418 209.849 338.787 207.237 341.079 205.65C342.368 204.757 343.898 204.278 345.466 204.278H352.839C354.834 204.278 356.452 202.66 356.452 200.666V189.733C356.452 187.596 354.719 185.863 352.582 185.863H343.059V185.862Z" fill="#FF9E55"/>
<path d="M295.461 200.266L292.256 199.914L310.26 157.244C312.616 151.661 318.054 148.053 324.114 148.053H339.216C342.939 148.053 345.968 151.082 345.968 154.805V192.837H342.898V154.805C342.898 152.774 341.245 151.121 339.215 151.121H324.113C319.289 151.121 314.961 153.993 313.086 158.437L295.461 200.266Z" fill="#163560"/>
<path d="M310.876 220.425C310.413 220.425 310.038 220.05 310.038 219.588V211C310.038 205.088 305.228 200.278 299.315 200.278C299.282 200.278 299.25 200.276 299.217 200.271C299.152 200.264 292.579 199.558 287.555 203.473C287.191 203.757 286.665 203.692 286.381 203.328C286.096 202.963 286.161 202.437 286.526 202.153C291.92 197.95 298.653 198.529 299.361 198.604C306.175 198.629 311.71 204.18 311.71 211V219.588C311.713 220.05 311.338 220.425 310.876 220.425Z" fill="#163560"/>
<path d="M282.96 215.731H221.526V217.976H282.96V215.731Z" fill="#163560"/>
<path d="M282.955 191.721H280.862V217.978H282.955V191.721Z" fill="#163560"/>
<path d="M336.911 174.224L335.803 188.28H318.368C318.368 188.28 317.445 184.353 320.338 184.18C323.229 184.009 330.156 182.965 330.156 182.965C330.156 182.965 329.816 174.235 335.151 172.779C336.084 172.525 336.985 173.276 336.911 174.224Z" fill="#2A4E96"/>
<path d="M327.328 164.727C327.328 164.727 325.542 165.813 323.605 165.506C323.605 165.506 323.222 165.409 323.41 164.959C323.292 164.596 323.305 164.629 323.237 164.358C323.068 163.738 323.015 163.38 323.015 163.38L324.114 162.225L325.156 161.121C325.445 163.761 327.328 164.727 327.328 164.727Z" fill="#FFB27D"/>
<path d="M325.326 162.122C325.326 162.122 324.728 163.721 323.241 164.36C323.072 163.74 322.961 163.089 322.961 163.089L324.12 162.224L325.326 162.122Z" fill="#ED985F"/>
<path d="M321.781 163.326C321.781 163.326 325.191 163.752 325.43 161.657C325.669 159.562 326.271 158.206 324.104 157.845C321.937 157.485 321.423 158.236 321.17 158.917C320.918 159.599 320.901 163.161 321.781 163.326Z" fill="#FFB27D"/>
<path d="M326.509 157.504C326.538 157.468 326.609 157.436 326.766 157.423C326.766 157.423 326.638 157.348 326.468 157.35C326.427 157.132 326.296 156.748 325.913 156.668C325.913 156.668 326.12 156.769 326.155 157.001C325.7 156.568 324.75 156.276 322.162 156.579C318.75 156.978 319.96 159.127 320.414 159.372C320.867 159.617 321.955 158.858 322.783 158.892C323.612 158.927 323.813 160.114 324.1 160.267C324.386 160.42 324.265 160.135 324.637 159.949C325.009 159.763 325.07 160.391 324.976 160.802C324.882 161.215 325.423 161.734 325.423 161.734C325.423 161.734 325.423 161.734 325.928 161.147C326.433 160.56 326.839 158.142 326.58 157.639C326.554 157.595 326.532 157.55 326.509 157.504Z" fill="#2C3A64"/>
<path d="M330.534 177.789C330.534 177.789 314.984 178.485 312.863 180.023C310.741 181.562 307.031 194.545 307.031 194.545C307.031 194.545 307.784 195.2 310.016 194.545C310.016 194.545 313.158 190.544 314.36 187.798C315.428 185.361 315.809 184.133 316.265 184.257C317.238 184.521 327.209 184.866 330.154 182.964C332.041 181.748 330.284 177.788 330.534 177.789Z" fill="#163560"/>
<path d="M327.329 164.412C327.329 164.412 329.321 166.051 329.951 170.947C330.58 175.844 331.283 180.15 330.897 180.324C328.172 181.555 320.838 180.299 321.021 177.385C321.204 174.471 321.877 165.839 323.606 165.073C325.334 164.309 327.329 164.412 327.329 164.412Z" fill="#FF9E55"/>
<path d="M313.127 177.903C312.805 178.038 312.43 177.883 312.295 177.561L309.065 169.825C308.931 169.503 309.085 169.128 309.407 168.993C309.731 168.859 310.104 169.013 310.239 169.335L313.469 177.071C313.605 177.393 313.451 177.768 313.127 177.903Z" fill="#163560"/>
<path d="M312.933 173.547C312.933 173.547 311.705 173.881 311.432 173.834C311.157 173.787 310.373 173.532 310.373 173.051C310.373 172.751 310.987 173.092 311.179 172.961C311.37 172.831 310.72 172.912 310.664 172.81C310.609 172.709 311.154 172.531 311.347 172.45C311.541 172.37 312.223 172.707 312.707 172.732C313.192 172.757 312.933 173.547 312.933 173.547Z" fill="#FFB27D"/>
<path d="M328.845 168.62C328.845 168.62 327.554 170.949 325.525 171.69C323.495 172.431 320.545 173.733 319.594 173.952C318.643 174.171 312.867 173.683 312.867 173.683C312.867 173.683 312.728 173.533 312.759 173.122C312.79 172.728 313.028 172.518 313.028 172.518C313.028 172.518 316.753 171.791 318.537 171.652C319.278 171.593 323.529 167.593 323.907 165.664C324.055 164.906 328.845 168.62 328.845 168.62Z" fill="#FF9E55"/>
<path d="M309.754 194.108C309.754 194.108 309.93 196.138 309.5 196.35L304.005 196.338C304.005 196.338 304.005 195.704 304.888 195.562C305.771 195.42 307.321 194.905 307.584 193.754C307.847 192.603 309.754 194.108 309.754 194.108Z" fill="#163560"/>
<path d="M306.798 172.44H309.293C309.941 172.44 310.517 172.845 310.736 173.455L311.457 175.461C311.603 175.867 311.571 176.314 311.37 176.695L310.955 177.48C309.962 179.361 308.069 180.596 305.947 180.749L302.903 180.967L305.339 173.497C305.546 172.866 306.135 172.44 306.798 172.44Z" fill="#163560"/>
<path d="M156.742 165.544C156.742 165.544 155.75 163.454 156.527 162.168C157.304 160.882 160.384 160.801 160.384 160.801C160.384 160.801 160.117 160.947 160.103 161.082C160.09 161.216 160.988 160.734 161.603 161.818C162.22 162.904 162.19 163.919 161.535 165.42C160.88 166.925 156.742 165.544 156.742 165.544Z" fill="#233862"/>
<path d="M172.229 186.416C171.633 186.554 168.943 186.587 167.055 186.162C166.661 186.075 166.302 185.966 166.004 185.834C165.648 185.677 165.379 185.488 165.243 185.26C165.03 184.904 164.638 183.687 164.18 182.09C162.914 177.691 161.135 170.424 161.135 170.424C161.135 170.424 164.709 171.153 165.465 171.776C166.223 172.399 166.89 182.278 167.602 182.545C167.706 182.585 167.888 182.668 168.119 182.781C168.13 182.787 168.142 182.793 168.154 182.798C168.292 182.866 168.447 182.945 168.615 183.031C170.091 183.788 172.235 185.207 172.787 185.459C173.259 185.677 173.097 186.215 172.229 186.416Z" fill="#FF9E55"/>
<path d="M165.371 176.047C165.371 175.88 165.355 175.712 165.324 175.542C164.865 173.013 161.207 170.475 161.134 170.475V170.477C161.134 170.864 160.525 171.576 159.586 171.638C158.473 171.711 157.106 171.157 157.106 170.516C157.1 170.516 156.472 170.519 156.262 170.542C155.37 170.643 153.589 171.125 152.825 171.702C152.099 172.249 153.125 175.706 153.76 178.152C154.029 179.188 154.227 180.043 154.194 180.421C154.177 180.605 154.011 183.117 153.862 185.389C153.74 187.265 153.63 188.975 153.625 189.082C153.617 189.295 154.676 190.041 156.453 190.605C156.882 190.741 157.354 190.866 157.862 190.971C158.774 191.158 159.807 191.279 160.929 191.275C161.296 191.273 161.644 191.255 161.972 191.222C164.515 190.971 165.386 188.078 165.371 176.047Z" fill="#FF9E55"/>
<path d="M172.235 186.41C172.149 186.431 172.033 186.441 171.883 186.463C171.402 186.505 170.622 186.515 169.755 186.484C168.44 186.42 166.932 186.237 166.002 185.832C166.451 184.122 167.392 183.245 168.151 182.796C168.803 183.116 169.84 183.662 170.77 184.196H170.781C171.776 184.752 172.494 185.36 172.79 185.457C173.282 185.619 173.1 186.218 172.235 186.41Z" fill="#FFB27D"/>
<path d="M157.098 170.402C157.077 169.42 157.092 168.248 157.225 167.256L161.146 167.897C161.146 167.897 161.146 169.093 161.13 170.421C161.133 170.421 161.134 170.421 161.134 170.421C161.134 170.421 161.242 171.651 159.723 171.833C158.207 172.014 157.058 171.354 157.098 170.402Z" fill="#FFB27D"/>
<path d="M160.38 222.48C159.887 222.176 160.177 219.928 160.177 219.928C160.177 219.928 162.486 218.095 162.798 219.506C163.109 220.917 164.977 221.558 166.041 221.735C166.776 221.857 167.002 222.264 167.071 222.506L160.38 222.48Z" fill="#233862"/>
<path d="M153.303 222.48C152.81 222.176 153.101 219.928 153.101 219.928C153.101 219.928 155.41 218.095 155.721 219.506C156.033 220.917 157.9 221.558 158.965 221.735C159.7 221.857 159.925 222.264 159.995 222.506L153.303 222.48Z" fill="#233862"/>
<path d="M153.628 189.081C153.62 189.294 154.679 190.04 156.455 190.602C156.599 190.648 156.747 190.692 156.9 190.734C156.901 190.734 156.903 190.736 156.903 190.739C157.069 192.685 157.518 195.432 157.922 198.086C158.026 198.774 158.128 199.455 158.222 200.114C158.468 201.857 158.654 203.447 158.674 204.59V204.602C158.683 205.127 158.24 206.436 158.206 206.739C158.185 206.923 158.169 207.12 158.156 207.324C158.108 208.143 158.128 209.111 158.194 210.144C158.485 214.653 159.676 220.423 160.101 220.67C160.946 221.158 162.484 220.67 163.266 220.555C163.59 220.507 163.848 220.231 163.832 219.905C163.45 212.42 164.547 201.996 165.366 195.589C165.388 195.423 165.409 195.258 165.43 195.098C165.528 194.342 165.593 193.637 165.634 193.001C165.672 192.443 165.69 191.936 165.698 191.496C165.699 191.359 165.701 191.228 165.702 191.104C165.704 190.704 165.385 188.077 165.371 176.047C165.371 175.768 165.143 175.541 164.864 175.541H157.506C156.796 175.541 156.224 176.124 156.232 176.834C156.244 177.752 156.21 179.033 156.011 180.256C155.739 181.927 155.158 183.488 153.957 183.863C153.956 183.863 153.954 183.864 153.954 183.866C153.948 183.878 153.916 183.951 153.863 184.073V184.075C153.851 184.377 153.839 184.684 153.826 184.997C153.823 185.059 153.82 185.122 153.817 185.186C153.815 185.224 153.814 185.26 153.811 185.298C153.808 185.361 153.805 185.425 153.801 185.49C153.797 185.596 153.791 185.702 153.785 185.809C153.78 185.894 153.776 185.977 153.771 186.061C153.762 186.225 153.753 186.39 153.743 186.556C153.74 186.609 153.736 186.662 153.732 186.716C153.718 186.931 153.703 187.15 153.687 187.369C153.682 187.438 153.676 187.504 153.671 187.572C153.67 187.605 153.667 187.637 153.664 187.67C153.658 187.757 153.65 187.843 153.643 187.929C153.635 188.02 153.628 188.112 153.62 188.206C153.593 188.543 153.637 188.845 153.628 189.081Z" fill="#2A4E96"/>
<path d="M158.197 210.144C158.488 214.653 159.679 220.423 160.104 220.67C160.949 221.158 162.487 220.67 163.269 220.555C163.593 220.507 163.851 220.231 163.835 219.905C163.453 212.42 164.55 201.996 165.369 195.59C165.391 195.423 165.412 195.258 165.433 195.098C165.531 194.342 165.596 193.637 165.637 193.001C165.247 190.46 163.047 190.324 161.052 195.579C161.299 197.322 158.677 203.413 158.677 204.59V204.602C158.686 205.127 158.243 206.436 158.209 206.739C158.188 206.923 158.172 207.12 158.159 207.324C158.111 208.143 158.131 209.111 158.197 210.144Z" fill="#233862"/>
<path d="M153.546 204.377C153.485 204.899 152.876 206.139 152.802 206.434C151.793 210.491 152.349 220.11 152.85 220.494C153.624 221.089 155.213 220.807 156.003 220.796C156.329 220.792 156.623 220.551 156.648 220.226C157.268 212.562 159.839 202.036 161.492 195.844C162.324 192.725 162.441 190.432 162.441 190.432C162.441 190.432 154.717 185.699 153.881 188.285C153.143 190.571 154.013 200.375 153.546 204.377Z" fill="#2A4E96"/>
<path d="M155.998 170.575C155.998 170.575 158.275 173.227 158.408 175.541H157.251C157.251 175.541 156.956 173.025 155.243 170.734L155.998 170.575Z" fill="#2A4E96"/>
<path d="M161.657 170.569C163.287 173.037 163.481 175.541 163.481 175.541H164.638C164.541 173.722 163.41 171.785 162.779 170.837C162.35 170.717 161.954 170.63 161.657 170.569Z" fill="#2A4E96"/>
<path d="M154.175 184.812C154.233 187.528 153.894 192.935 153.894 192.935H152.291C151.535 189.13 151.268 186.682 151.268 185.347C151.268 185.084 151.269 184.839 151.271 184.612C151.281 183.472 151.311 182.81 151.311 182.81C151.011 175.901 152.391 172.206 152.824 171.698C153.258 171.19 155.24 170.732 155.24 170.732C155.24 170.732 155.895 172.64 156.162 174.175C156.43 175.71 154.062 182.162 154.16 184.367C154.168 184.506 154.172 184.654 154.175 184.812Z" fill="#FF9E55"/>
<path d="M154.079 189.308C154.003 191.264 153.897 192.932 153.897 192.932H152.293C152.014 191.574 151.812 190.387 151.652 189.371C151.373 187.522 151.266 186.206 151.266 185.35C151.266 185.083 151.266 184.838 151.277 184.612C151.865 184.484 152.891 184.399 154.174 184.815C154.196 186.026 154.144 187.758 154.079 189.308Z" fill="#FFB27D"/>
<path d="M155.029 194.944C155.05 195.382 153.136 196.388 152.56 196.12C151.982 195.853 151.961 194.334 152.292 192.934C152.623 191.534 153.896 192.934 153.896 192.934C153.896 192.934 155.008 194.495 155.029 194.944Z" fill="#FFB27D"/>
<path d="M175.954 186.465H171.881L172.789 185.459C172.789 185.459 173.837 185.673 174.522 185.459C175.206 185.245 175.954 186.465 175.954 186.465Z" fill="#FFB27D"/>
<path d="M157.133 168.269C157.133 168.269 158.103 169.418 159.141 169.42C160.432 169.423 161.137 168.18 161.137 168.18L157.133 168.269Z" fill="#ED975D"/>
<path d="M161.031 168.28C160.65 168.579 159.533 168.877 159.211 168.912C159.211 168.912 157.555 168.543 157.252 168.361C156.787 168.079 156.815 167.507 156.793 166.712C156.764 165.77 156.669 165.03 156.775 164.487C156.9 163.839 157.311 163.468 158.464 163.368C160.579 163.185 161.461 163.715 161.499 164.424C161.508 164.614 161.517 164.796 161.523 164.968C161.606 167.179 161.432 167.964 161.031 168.28Z" fill="#FFB27D"/>
<path d="M156.739 165.544C156.739 165.544 156.566 163.655 157.677 163.655C158.788 163.655 160.29 165.075 160.96 164.165C161.63 163.255 161.534 165.423 161.534 165.423L161.602 162.517L157.316 162.356L156.417 163.026L156.739 165.544Z" fill="#233862"/>
<path d="M200.804 170.891H187.437V181.913H200.804V170.891Z" fill="#D8702A"/>
<path d="M194.12 170.891H180.753V181.913H194.12V170.891Z" fill="#FF9E55"/>
<path d="M200.794 179.117H198.676L198.862 178.521L198.676 178.094H200.794V179.117Z" fill="#C15E1B"/>
<path d="M194.121 174.303H192.002L192.19 173.705L192.002 173.28H194.121V174.303Z" fill="#FFB27D"/>
<path d="M194.12 173.28H196.238L196.051 173.876L196.238 174.303H194.12V173.28Z" fill="#C15E1B"/>
<path d="M180.753 179.235H182.871L182.685 179.832L182.871 180.257H180.753V179.235Z" fill="#FFB27D"/>
<path d="M181.627 173.134H185.474V171.637H181.627V173.134Z" fill="white"/>
<path d="M187.057 181.445C186.732 181.235 185.997 180.771 185.963 180.882C185.939 180.963 185.983 181.094 186.074 181.23C185.634 181.085 185.191 180.996 184.158 181.236C183.951 181.285 183.766 181.41 183.659 181.593C183.559 181.763 183.527 181.97 183.8 182.125C184.344 182.435 184.182 182.243 184.938 182.696C185.694 183.148 186.603 183.235 187.129 182.877L187.849 182.729L187.893 181.534C187.894 181.531 187.479 181.498 187.057 181.445Z" fill="#FFB27D"/>
<path d="M205.794 169.142C205.794 169.142 203.741 170.819 201.758 169.585C201.758 169.585 201.507 168.386 201.654 167.565C201.672 167.464 201.689 167.366 201.705 167.273C201.867 166.348 201.934 165.823 201.934 165.823C201.934 165.823 201.934 165.823 201.937 165.823C202.041 165.8 205.459 165.093 205.434 165.2C204.911 167.688 205.794 169.142 205.794 169.142Z" fill="#FFB27D"/>
<path d="M205.003 165.735C204.59 166.245 203.334 167.158 201.705 167.271C201.867 166.346 201.934 165.821 201.934 165.821C201.934 165.821 201.934 165.821 201.937 165.821C202.027 165.815 205.126 165.585 205.003 165.735Z" fill="#ED975D"/>
<path d="M201.287 165.602C201.287 165.602 204.697 167.109 205.603 164.971C206.508 162.833 207.559 161.587 205.42 160.535C203.28 159.482 202.509 160.117 202.033 160.757C201.559 161.396 200.424 165.154 201.287 165.602Z" fill="#FFB27D"/>
<path d="M205.37 165.555C205.412 165.596 206.137 165.976 208.133 163.352C208.446 162.941 208.786 161.986 208.417 161.017C208.048 160.048 206.289 159.012 204.779 158.421C203.267 157.83 202.725 158.642 202.19 159.458C201.627 160.316 200.366 160.872 200.366 160.872C201.576 161.881 203.406 161.106 203.936 161.389C204.467 161.672 204.499 162.599 204.488 162.891C204.478 163.184 204.497 163.432 205.255 163.311C206.011 163.19 205.388 164.376 205.229 164.596C205.229 164.595 205.012 165.219 205.37 165.555Z" fill="#A9453D"/>
<path d="M210.588 222.507H212.785C213.247 222.507 213.758 222.046 213.886 221.2C214.015 220.355 214.961 219.894 215.167 219.203C215.373 218.512 214.322 217.538 214.322 217.538L214.146 217.313L213.963 217.078L212.223 217.488C212.223 217.488 212.181 217.902 212.153 218.43C212.135 218.811 212.125 219.253 212.146 219.638C212.197 220.561 211.887 221.553 211.069 221.733C210.25 221.913 210.588 222.507 210.588 222.507Z" fill="#2C3A64"/>
<path d="M195.287 222.507H201.113C201.169 222.497 201.212 222.485 201.237 222.471C201.626 222.276 201.505 220.787 201.458 220.327C201.449 220.242 201.443 220.192 201.443 220.192C201.443 220.192 199.394 218.555 199.113 219.808C199.104 219.848 199.093 219.885 199.083 219.923C198.727 221.097 197.136 221.63 196.219 221.779C195.515 221.895 195.334 222.303 195.287 222.507Z" fill="#2C3A64"/>
<path d="M196.461 188.912C196.461 188.912 196.772 192.794 197.138 197.46C197.636 203.799 198.233 211.584 198.292 213.059C198.395 215.621 198.805 219.717 198.805 219.717C198.805 219.717 199.777 220.691 201.723 220.28C201.723 220.28 203.458 214.432 203.954 208.243C203.961 208.142 203.969 208.039 203.976 207.938C204.438 201.638 205.154 188.374 205.154 188.374L196.461 188.912Z" fill="#FF9E55"/>
<path d="M197.62 188.653C197.62 188.653 197.419 191.076 198.539 195.62C199.362 198.954 203.953 208.243 203.953 208.243C203.96 208.142 203.968 208.039 203.975 207.938C204.437 201.638 205.153 188.374 205.153 188.374L197.62 188.653Z" fill="#ED823A"/>
<path d="M197.62 188.653C197.62 188.653 203.488 203.429 207.176 210.036C210.863 216.643 212.015 218.486 212.015 218.486C212.015 218.486 214.128 217.641 214.32 217.064C214.32 217.064 212.909 204.311 210.441 201.202C209.046 199.445 207.406 194.174 207.331 192.33C207.254 190.487 206.832 186.838 206.832 186.838L197.62 188.653Z" fill="#FF9E55"/>
<path d="M197.323 188.375C198.144 188.425 206.809 188.097 206.812 187.613C206.819 185.93 207.171 183.205 207.61 179.896C207.69 179.279 207.754 178.667 207.801 178.064C207.922 176.488 207.928 174.971 207.81 173.601C207.592 171.056 206.511 169.003 205.408 168.046C205.263 167.925 204.729 168.33 203.833 168.693C203.006 169.029 202.351 168.788 201.607 168.579L200.656 169.416C199.865 170.154 199.017 171.277 198.604 172.29C198.604 172.292 197.25 188.369 197.323 188.375Z" fill="#2A4E96"/>
<path d="M198.605 172.292L200.972 172.842L204.229 181.662C204.696 182.93 205.904 183.77 207.255 183.77L206.969 188.125L196.461 188.913L198.605 172.292Z" fill="#FF9E55"/>
<path d="M187.256 182.114C187.181 181.424 187.534 181.296 187.534 181.296C187.534 181.296 194.509 179.75 195.099 179.54C195.689 179.328 200.59 173.819 200.59 173.819C200.59 173.819 202.462 171.536 204.083 171.961C205.492 172.33 206.079 173.396 206.304 174.424C206.573 175.649 206.052 176.912 205.01 177.609C202.669 179.172 197.981 182.256 196.864 182.631C194.376 183.465 187.591 183.048 187.591 183.048C187.591 183.048 187.315 182.655 187.256 182.114Z" fill="#2A4E96"/>
<path d="M203.425 170.286C203.976 169.775 205.744 168.367 205.744 168.367L205.411 168.044C205.175 167.994 203.348 169.367 202.74 169.91C202.009 170.562 199.976 172.692 199.976 172.692L200.973 172.84C200.973 172.84 202.777 170.888 203.425 170.286Z" fill="#ED823A"/>
<circle cx="237.632" cy="14.6333" r="13.3067" fill="#FF9E55"/>
<path d="M228.027 23.8923C224.218 19.5824 219.936 7.36039 232.969 1.05166M234.787 0.765555C235.763 0.432261 239.756 0.189803 241.908 1.1897M244.635 2.49259C246.563 3.46867 250.545 6.74736 250.83 14.4036" stroke="#FF9E55" stroke-width="0.950131"/>
<path d="M243.776 14.9977C243.788 16.2735 243.422 17.5243 242.723 18.5918C242.024 19.6593 241.025 20.4956 239.851 20.995C238.676 21.4944 237.381 21.6344 236.127 21.3974C234.873 21.1603 233.718 20.5568 232.807 19.6632C231.897 18.7696 231.271 17.626 231.011 16.3771C230.75 15.1281 230.865 13.8299 231.343 12.6466C231.82 11.4632 232.637 10.4479 233.691 9.7291C234.745 9.01025 235.989 8.62012 237.264 8.60804L237.326 15.0587L243.776 14.9977Z" fill="white"/>
<path d="M244.213 13.9933C244.206 13.2224 244.047 12.4606 243.745 11.7512C243.444 11.0419 243.005 10.3989 242.455 9.85895C241.905 9.31905 241.254 8.8928 240.539 8.60456C239.824 8.31631 239.059 8.17171 238.288 8.179L238.344 14.0488L244.213 13.9933Z" fill="white"/>
<circle cx="326.582" cy="92.314" r="16.4689" fill="#699DEE"/>
<path d="M314.694 103.774C309.98 98.4395 304.68 83.313 320.81 75.5051M323.061 75.151C324.269 74.7385 329.211 74.4384 331.873 75.6759M335.248 77.2884C337.635 78.4965 342.563 82.5543 342.917 92.03" stroke="#699DEE" stroke-width="0.950131"/>
<path d="M319.563 92.0207C319.072 92.2213 318.836 92.782 319.037 93.273C319.237 93.764 319.798 93.9994 320.289 93.7988L319.563 92.0207ZM333.36 83.8945C333.305 83.367 332.832 82.9842 332.305 83.0396L323.708 83.9423C323.181 83.9977 322.798 84.4703 322.853 84.9978C322.909 85.5253 323.381 85.908 323.909 85.8526L331.55 85.0502L332.352 92.6914C332.408 93.2189 332.88 93.6017 333.408 93.5463C333.935 93.4909 334.318 93.0183 334.263 92.4908L333.36 83.8945ZM320.289 93.7988C321.648 93.2433 324.113 91.8593 326.579 90.188C329.04 88.5203 331.622 86.4867 333.151 84.5993L331.658 83.3903C330.315 85.0494 327.927 86.9542 325.502 88.5979C323.082 90.2381 320.743 91.5383 319.563 92.0207L320.289 93.7988Z" fill="white"/>
<rect x="319.797" y="95.328" width="2.93469" height="1.98139" rx="0.639935" fill="white"/>
<rect x="324.685" y="92.6532" width="2.93469" height="4.65561" rx="0.639935" fill="white"/>
<rect x="330.118" y="89.8687" width="2.93469" height="7.44017" rx="0.639935" fill="white"/>
<path d="M338.5 6.56875L320.758 42.2741C320.402 42.9908 319.372 42.9658 319.05 42.2334L314.485 31.7985L338.5 6.56875Z" fill="#163560"/>
<path d="M314.484 31.7985L302.119 27.689L338.499 6.56877L314.484 31.7985Z" fill="#699DEE"/>
<path d="M338.498 6.56875L322.109 34.5809L336.834 39.5167L338.498 6.56875Z" fill="#699DEE"/>
<path d="M317.206 51.2008L316.74 51.0255C316.947 50.4809 317.15 49.9364 317.347 49.3949L317.813 49.567C317.613 50.1085 317.41 50.6531 317.206 51.2008Z" fill="#163560"/>
<path d="M84.0372 140.524L83.9527 140.032C85.0635 139.841 86.1931 139.563 87.3132 139.206L87.4634 139.682C86.3245 140.045 85.173 140.327 84.0372 140.524ZM88.8903 139.184L88.715 138.718C89.7539 138.327 90.8208 137.854 91.8878 137.313L92.1131 137.757C91.0305 138.305 89.9479 138.787 88.8903 139.184ZM93.4492 137.05L93.2083 136.615C94.1751 136.076 95.1514 135.488 96.1871 134.809L96.4593 135.225C95.4111 135.91 94.4254 136.505 93.4492 137.05ZM97.7077 134.386L97.4261 133.976C98.3116 133.366 99.2378 132.699 100.258 131.932L100.558 132.33C99.5319 133.1 98.5995 133.773 97.7077 134.386ZM101.754 131.422L101.45 131.028C102.417 130.283 103.377 129.525 104.204 128.874L104.513 129.266C103.687 129.917 102.724 130.677 101.754 131.422ZM105.69 128.333L105.38 127.942C106.262 127.247 107.204 126.502 108.14 125.785L108.443 126.18C107.511 126.896 106.569 127.638 105.69 128.333ZM109.635 125.278L109.338 124.881C110.377 124.108 111.234 123.494 112.198 122.843L112.477 123.256C111.519 123.901 110.668 124.511 109.635 125.278ZM113.725 122.43L113.456 122.011C114.445 121.375 115.455 120.762 116.46 120.189L116.707 120.621C115.706 121.191 114.704 121.798 113.725 122.43ZM118.012 119.898L117.777 119.46C118.807 118.906 119.864 118.374 120.915 117.882L121.125 118.333C120.08 118.821 119.032 119.347 118.012 119.898ZM211.478 119.779C211.468 119.779 211.168 119.779 211.159 119.779L211.162 119.281C212.329 119.288 213.515 119.253 214.641 119.178L214.676 119.676C213.634 119.745 212.56 119.779 211.478 119.779ZM209.654 119.748C208.486 119.71 207.313 119.619 206.149 119.529L206.19 119.034C207.347 119.125 208.511 119.213 209.672 119.253L209.654 119.748ZM216.177 119.547L216.127 119.053C217.313 118.934 218.471 118.762 219.566 118.549L219.66 119.037C218.552 119.256 217.379 119.425 216.177 119.547ZM204.65 119.4C203.527 119.297 202.354 119.178 201.165 119.044L201.221 118.549C202.407 118.684 203.577 118.803 204.697 118.903L204.65 119.4ZM199.672 118.871C198.558 118.737 197.391 118.587 196.199 118.421L196.268 117.926C197.457 118.089 198.624 118.242 199.735 118.377L199.672 118.871ZM221.137 118.715L221.018 118.233C222.182 117.951 223.299 117.607 224.332 117.216L224.507 117.682C223.459 118.08 222.323 118.427 221.137 118.715ZM194.713 118.211C193.558 118.045 192.403 117.87 191.249 117.691L191.324 117.2C192.475 117.378 193.627 117.554 194.781 117.72L194.713 118.211ZM244.235 118.073L244.232 117.576C245.352 117.573 246.522 117.526 247.711 117.435L247.749 117.932C246.547 118.02 245.365 118.067 244.235 118.073ZM242.727 118.051C241.513 118.014 240.333 117.92 239.216 117.776L239.279 117.281C240.38 117.422 241.547 117.513 242.743 117.551L242.727 118.051ZM249.248 117.798L249.198 117.303C250.318 117.188 251.482 117.037 252.652 116.853L252.73 117.344C251.551 117.529 250.38 117.682 249.248 117.798ZM122.483 117.72L122.283 117.263C123.353 116.793 124.448 116.352 125.54 115.948L125.712 116.414C124.633 116.815 123.547 117.253 122.483 117.72ZM237.721 117.548C236.519 117.335 235.368 117.05 234.291 116.709L234.441 116.236C235.496 116.574 236.629 116.85 237.805 117.059L237.721 117.548ZM189.766 117.457C188.611 117.272 187.46 117.084 186.311 116.893L186.393 116.402C187.541 116.593 188.692 116.781 189.844 116.965L189.766 117.457ZM225.912 117.1L225.705 116.646C226.791 116.155 227.805 115.585 228.718 114.962L229 115.372C228.064 116.014 227.026 116.593 225.912 117.1ZM254.217 117.091L254.129 116.602C255.274 116.396 256.413 116.161 257.54 115.889L257.655 116.374C256.516 116.646 255.371 116.881 254.217 117.091ZM184.828 116.643C183.677 116.449 182.525 116.255 181.377 116.058L181.461 115.566C182.61 115.76 183.761 115.958 184.913 116.152L184.828 116.643ZM232.864 116.199C231.732 115.748 230.693 115.238 229.698 114.612L229.964 114.192C229.986 114.205 230.004 114.217 230.026 114.233L229.898 114.076C230.802 113.335 231.606 112.505 232.292 111.616L232.686 111.92C231.998 112.815 231.193 113.645 230.292 114.396C231.153 114.906 232.07 115.35 233.043 115.738L232.864 116.199ZM259.113 115.998L258.985 115.516C260.099 115.216 261.219 114.878 262.317 114.508L262.477 114.981C261.366 115.353 260.237 115.698 259.113 115.998ZM127.123 115.917L126.964 115.447C128.062 115.072 129.192 114.721 130.318 114.408L130.453 114.887C129.332 115.197 128.212 115.544 127.123 115.917ZM179.897 115.807C178.745 115.613 177.594 115.419 176.446 115.228L176.527 114.737C177.675 114.928 178.827 115.122 179.978 115.316L179.897 115.807ZM174.966 114.984C173.814 114.796 172.66 114.615 171.511 114.436L171.586 113.945C172.738 114.12 173.892 114.305 175.047 114.493L174.966 114.984ZM131.892 114.505L131.77 114.023C132.893 113.738 134.048 113.482 135.196 113.26L135.29 113.748C134.151 113.967 133.006 114.224 131.892 114.505ZM263.894 114.483L263.722 114.017C264.802 113.623 265.891 113.188 266.955 112.724L267.152 113.181C266.082 113.648 264.983 114.086 263.894 114.483ZM170.028 114.214C168.808 114.033 167.675 113.873 166.567 113.726L166.633 113.231C167.747 113.379 168.88 113.538 170.103 113.72L170.028 114.214ZM228.452 113.732C227.514 113 226.66 112.164 225.915 111.253L226.3 110.937C227.023 111.82 227.852 112.631 228.759 113.341L228.452 113.732ZM165.078 113.535C163.889 113.385 162.719 113.25 161.608 113.134L161.661 112.64C162.778 112.756 163.948 112.893 165.144 113.044L165.078 113.535ZM136.757 113.479L136.673 112.987C137.809 112.793 138.979 112.624 140.146 112.487L140.206 112.981C139.048 113.119 137.887 113.285 136.757 113.479ZM160.115 112.984C158.929 112.872 157.759 112.778 156.636 112.699L156.67 112.202C157.8 112.28 158.976 112.374 160.165 112.487L160.115 112.984ZM141.692 112.821L141.645 112.327C142.784 112.214 143.964 112.13 145.146 112.067L145.171 112.565C143.995 112.624 142.825 112.712 141.692 112.821ZM155.137 112.609C153.951 112.543 152.778 112.499 151.648 112.474L151.661 111.976C152.797 112.001 153.976 112.045 155.165 112.111L155.137 112.609ZM268.522 112.562L268.313 112.111C269.355 111.626 270.4 111.103 271.423 110.552L271.658 110.99C270.628 111.544 269.574 112.073 268.522 112.562ZM146.664 112.499L146.648 112.001C147.79 111.961 148.982 111.945 150.156 111.954L150.153 112.452C148.992 112.446 147.803 112.462 146.664 112.499ZM233.556 110.668L233.133 110.405C233.731 109.438 234.235 108.383 234.56 107.294L235.036 107.438C234.698 108.571 234.175 109.663 233.556 110.668ZM272.975 110.264L272.728 109.832C273.726 109.266 274.73 108.659 275.71 108.03L275.979 108.449C274.996 109.081 273.982 109.692 272.975 110.264ZM225.007 110.023C224.325 108.987 223.806 107.908 223.468 106.815L223.944 106.668C224.269 107.717 224.767 108.753 225.427 109.751L225.007 110.023ZM277.24 107.62L276.961 107.206C277.915 106.565 278.87 105.886 279.805 105.185L280.103 105.582C279.164 106.289 278.2 106.975 277.24 107.62ZM235.383 105.945L234.892 105.864C235.08 104.731 235.086 103.57 234.861 102.474L235.349 102.374C235.583 103.532 235.58 104.753 235.383 105.945ZM223.118 105.322C222.933 104.133 222.942 102.897 223.274 101.748L223.753 101.883C223.443 102.966 223.437 104.127 223.612 105.244L223.118 105.322ZM281.301 104.668L280.994 104.277C281.899 103.57 282.806 102.825 283.695 102.064L284.02 102.443C283.125 103.21 282.212 103.958 281.301 104.668ZM285.153 101.448L284.821 101.075C285.675 100.311 286.536 99.5102 287.378 98.6933L287.725 99.0501C286.88 99.8733 286.013 100.681 285.153 101.448ZM234.441 101.085C234.016 100.042 233.287 99.0313 232.458 98.4085L232.761 98.0141C233.659 98.6902 234.441 99.77 234.901 100.894L234.441 101.085ZM224.3 100.552L223.865 100.311C224.457 99.241 225.323 98.3521 226.372 97.7418L226.622 98.1737C225.649 98.7371 224.845 99.5603 224.3 100.552ZM288.798 97.9922L288.445 97.6417C289.255 96.8279 290.065 95.9766 290.86 95.1159L291.226 95.4539C290.428 96.3177 289.612 97.1722 288.798 97.9922ZM231.215 97.7136C230.195 97.3224 229.047 97.2849 227.939 97.6072L227.802 97.1284C229.013 96.7778 230.274 96.8185 231.397 97.2504L231.215 97.7136ZM292.24 94.3334L291.868 94.0017C292.631 93.1441 293.398 92.2521 294.146 91.3507L294.527 91.6699C293.776 92.5744 293.007 93.4727 292.24 94.3334ZM295.485 90.5025L295.097 90.1895C295.816 89.2944 296.539 88.3648 297.243 87.429L297.641 87.7294C296.933 88.6715 296.208 89.6042 295.485 90.5025ZM298.539 86.5213L298.138 86.2271C298.82 85.2975 299.499 84.3367 300.159 83.3758L300.569 83.6575C299.906 84.6215 299.224 85.5855 298.539 86.5213ZM301.414 82.4118L301.001 82.1364C301.639 81.1818 302.281 80.1959 302.904 79.2069L303.326 79.4729C302.7 80.4619 302.056 81.4541 301.414 82.4118ZM304.121 78.1928L303.695 77.933C304.299 76.9502 304.9 75.9424 305.485 74.9315L305.917 75.1819C305.329 76.1959 304.725 77.2069 304.121 78.1928ZM306.662 73.8799L306.23 73.6357C306.796 72.631 307.362 71.6045 307.913 70.5747L308.351 70.8095C307.797 71.8392 307.231 72.872 306.662 73.8799ZM309.049 69.4824L308.608 69.2508C309.14 68.2305 309.672 67.182 310.188 66.1397L310.635 66.3588C310.116 67.4105 309.584 68.459 309.049 69.4824ZM311.292 65.0099L310.845 64.7939C311.346 63.7548 311.846 62.6875 312.328 61.6296L312.782 61.8362C312.297 62.8972 311.796 63.9676 311.292 65.0099ZM313.398 60.4653L312.944 60.2619C313.414 59.2103 313.88 58.1305 314.334 57.0538L314.791 57.2478C314.337 58.3276 313.868 59.4106 313.398 60.4653ZM315.366 55.8582L314.906 55.6704C315.348 54.5969 315.782 53.5045 316.202 52.4216L316.665 52.6031C316.246 53.6892 315.811 54.7846 315.366 55.8582Z" fill="#163560"/>
<path d="M80.7766 140.858L80.761 140.361C81.3336 140.342 81.9125 140.301 82.4819 140.242L82.5351 140.736C81.9531 140.796 81.3618 140.84 80.7766 140.858Z" fill="#163560"/>
<path d="M77.275 140.641C76.136 140.379 75.0127 139.99 73.9395 139.487L74.1522 139.036C75.1942 139.527 76.2831 139.903 77.3876 140.156L77.275 140.641ZM72.5971 138.782C71.5802 138.188 70.6227 137.487 69.7498 136.698L70.0846 136.329C70.9294 137.095 71.8587 137.774 72.8475 138.354L72.5971 138.782ZM68.6734 135.631C67.8724 134.76 67.1715 133.812 66.577 132.792L67.0056 132.541C67.5845 133.53 68.2604 134.451 69.0395 135.293L68.6734 135.631ZM65.8729 131.449C65.3754 130.385 64.9874 129.261 64.7184 128.113L65.2033 128C65.463 129.114 65.8417 130.203 66.3235 131.236L65.8729 131.449ZM64.4399 126.626C64.274 125.455 64.2302 124.272 64.3147 123.099L64.8122 123.133C64.7309 124.272 64.7715 125.418 64.9311 126.557L64.4399 126.626Z" fill="#324D90"/>
<g clip-path="url(#clip0_0_21)">
<path d="M95.7906 80.1078C91.2943 117.28 69.6758 117.246 65.1911 80.1062C65.5343 60.4977 95.4491 60.4977 95.7906 80.1078Z" fill="#324D90"/>
<path d="M88.6807 79.3223C88.4976 89.8192 72.4842 89.8176 72.301 79.3223C72.4858 68.8254 88.4976 68.827 88.6807 79.3223Z" fill="white"/>
</g>
<defs>
<clipPath id="clip0_0_21">
<rect width="30.5837" height="42.5513" fill="white" transform="translate(65.1906 65.4004) scale(1.00052)"/>
</clipPath>
</defs>
</svg>
