<svg width="12" height="12" viewBox="0 0 12 12" fill="none" xmlns="http://www.w3.org/2000/svg">
<g clip-path="url(#clip0_0_413)">
<path d="M-0.000328611 1.3156C0.029609 1.20759 0.0527959 1.09723 0.0906581 0.992158C0.302863 0.402505 0.840271 0.00685948 1.46426 0.00421793C2.96378 -0.00223919 4.46301 0.000695863 5.96253 0.00216339C6.26015 0.0024569 6.47323 0.214661 6.47352 0.497307C6.47382 0.781127 6.2666 0.990397 5.96371 0.992745C5.33913 0.997734 4.71425 0.994506 4.08938 0.994506C3.24995 0.994506 2.41023 0.995093 1.57081 0.993919C1.36799 0.993625 1.17956 1.04 1.08183 1.2296C1.02577 1.3382 1.00082 1.47439 1.00053 1.59795C0.995536 3.52306 0.997003 5.44787 0.997003 7.37297C0.997003 8.37646 0.997884 9.37996 0.996123 10.3835C0.995829 10.5584 1.02929 10.716 1.16753 10.8375C1.28728 10.9429 1.4308 10.9637 1.58255 10.9637C3.01163 10.9631 4.44071 10.9631 5.86978 10.964C5.94375 10.964 6.01977 10.9622 6.09138 10.9769C6.33206 11.0265 6.48967 11.2516 6.4703 11.5076C6.45239 11.7439 6.25927 11.9361 6.02065 11.9543C5.98953 11.9566 5.95813 11.9569 5.92702 11.9569C4.4589 11.9569 2.99079 11.959 1.52238 11.9564C0.785973 11.9549 0.204538 11.4935 0.0363596 10.7873C0.0249129 10.7389 0.0117051 10.691 -0.000622116 10.6426C-0.000328611 7.53352 -0.000328611 4.42471 -0.000328611 1.3156Z" fill="white"/>
<path d="M10.2821 6.47503C10.2034 6.47503 10.1579 6.47503 10.1121 6.47503C8.25719 6.47503 6.40223 6.4718 4.54728 6.47767C4.20505 6.47884 4.03012 6.26341 3.99372 6.0606C3.94471 5.78617 4.15192 5.50998 4.42958 5.48679C4.48769 5.4818 4.54669 5.48298 4.6051 5.48298C6.4445 5.48268 8.2836 5.48268 10.123 5.48268C10.165 5.48268 10.2067 5.48268 10.2797 5.48268C10.2307 5.43073 10.2014 5.39786 10.1703 5.36675C9.50341 4.70812 8.83686 4.0492 8.16884 3.39204C8.02326 3.24881 7.93961 3.08797 7.98775 2.87811C8.06788 2.52943 8.47761 2.37651 8.76436 2.59019C8.8081 2.62276 8.84772 2.66092 8.88646 2.69937C9.85386 3.65385 10.821 4.60862 11.7878 5.56369C12.0707 5.84311 12.0707 6.11431 11.7881 6.39372C10.8157 7.35407 9.843 8.31442 8.87003 9.27448C8.64256 9.49872 8.38427 9.52924 8.16679 9.3596C7.94724 9.18848 7.90909 8.87913 8.08255 8.66164C8.1166 8.61908 8.15534 8.58005 8.19408 8.5416C8.85535 7.88855 9.51691 7.23579 10.1782 6.58274C10.2058 6.55603 10.2319 6.52727 10.2821 6.47503Z" fill="white"/>
</g>
<defs>
<clipPath id="clip0_0_413">
<rect width="11.773" height="11.7316" fill="white" transform="scale(1.01928)"/>
</clipPath>
</defs>
</svg>
